<?xml version="1.0" encoding="utf-8"?>
<!-- Generator: Adobe Illustrator 27.0.0, SVG Export Plug-In . SVG Version: 6.00 Build 0)  -->
<svg version="1.1" id="Слой_1" xmlns="http://www.w3.org/2000/svg" xmlns:xlink="http://www.w3.org/1999/xlink" x="0px" y="0px"
	 viewBox="0 0 176.2 176.2" style="enable-background:new 0 0 176.2 176.2;" xml:space="preserve">
<style type="text/css">
	.st0{fill:#11388D;}
	.st1{fill:none;stroke:#29235C;stroke-width:2;stroke-miterlimit:10;}
	.st2{fill:url(#SVGID_1_);}
	.st3{fill:#FFFFFF;}
	.st4{clip-path:url(#SVGID_00000135656561899998672160000011602103767606687669_);}
	.st5{fill:#261303;}
	.st6{fill:#E7CAAF;}
	.st7{fill:#F1DFCB;}
	.st8{fill:#657C8F;}
	.st9{fill:#7D98AF;}
	.st10{fill:#263A57;}
	.st11{fill:#644136;}
	.st12{fill:#63441D;}
	.st13{fill:#6B6161;}
	.st14{fill:#0D2B8A;}
	.st15{fill:#1E4BA1;}
	.st16{fill:#646669;}
	.st17{fill:#AEB0B3;}
	.st18{fill:#D8D8D8;}
	.st19{fill:#87D6F0;}
	.st20{fill:#1D70B6;}
	.st21{fill:#2D2E81;}
	.st22{fill:#F4F4F4;}
	.st23{fill:#35A7DF;}
	.st24{fill:#29235C;}
</style>
<circle class="st0" cx="88.1" cy="88.1" r="88.1"/>
<circle class="st1" cx="87.7" cy="88.4" r="60.5"/>
<radialGradient id="SVGID_1_" cx="88.091" cy="88.091" r="59.7701" gradientUnits="userSpaceOnUse">
	<stop  offset="0" style="stop-color:#35A7DF"/>
	<stop  offset="1" style="stop-color:#1D70B6"/>
</radialGradient>
<circle class="st2" cx="88.1" cy="88.1" r="59.8"/>
<g>
	<path class="st3" d="M22.3,104.5l-6,2.5c-0.9,0.3-2.7,0.9-3.5,1.2l0,0c1.5-0.3,3.1-0.7,3.6-0.8l6.5-0.9l0.8,2.6l-5.9,2.7
		c-0.8,0.4-2.3,0.9-3.4,1.3l0,0c1-0.2,2.7-0.7,3.6-0.9l6.4-1.2l0.8,2.6l-12.5,1.6l-0.9-3.1l5.7-2.4c0.6-0.3,2.6-1,3.9-1.4l0,0
		c-1.6,0.4-3.5,0.8-4,0.9l-6.1,1l-0.9-3l11.3-5.6L22.3,104.5z"/>
	<path class="st3" d="M23.4,118.3c0.8,0.2,1.3,0.8,1.6,1.4c0.5,1,0.3,2.2-1,2.8l-6.7,3.2l-1.1-2.4l5.9-2.8c0.5-0.3,0.7-0.6,0.5-1
		c-0.2-0.5-0.6-0.5-1.1-0.3l-5.9,2.8l-1.1-2.4l11.2-5.4l1.1,2.4L23.4,118.3z"/>
	<path class="st3" d="M27.4,130.8l-2.3,1.4c-2.3,1.4-3.8,0.7-4.8-0.9c-1.1-1.7-1.1-3.4,1.2-4.8l2.3-1.5c2.2-1.4,3.8-0.7,4.8,1
		C29.6,127.6,29.7,129.3,27.4,130.8z M25.6,127l-3.2,2c-0.6,0.4-0.7,0.8-0.4,1.2c0.3,0.4,0.7,0.5,1.2,0.1l3.2-2.1
		c0.6-0.4,0.7-0.8,0.4-1.2C26.6,126.7,26.1,126.6,25.6,127z"/>
	<path class="st3" d="M38.6,138.8l-2.5,3.4c-0.1,0.1-1.8,2.3-1.9,2.4l0,0c0.1-0.1,2.1-2,2.2-2.1l3.3-2.6l1.6,1.5l-2.3,3.5
		c-0.1,0.1-1.7,2.2-1.9,2.5l0,0c0.7-0.7,2.1-2,2.2-2.1l3.2-2.8l2,1.8l-7.7,5.6l-2.1-1.8l1.6-2.5c0.1-0.2,2.2-2.8,2.2-2.9l0,0
		c-0.1,0.1-2.5,2.4-2.6,2.5l-2.4,1.9l-2.1-1.9l5-8L38.6,138.8z"/>
	<path class="st3" d="M44,147.4c1.1-1.6,2.6-2.2,4.6-0.8c2,1.3,2.3,2.7,1.3,4.1l-3,4.4c-0.5,0.7-0.6,1-0.7,1.4l-2.1-1.4l0.5-1.1
		c-0.7,0.4-1.5,0.7-2.6,0c-1.2-0.8-1.5-1.8-0.5-3.4c0.8-1.2,1.7-1.5,2.9-1.3l2,0.2c0.7,0.1,0.9,0,1.2-0.4c0.2-0.3,0.2-0.7-0.3-1.1
		c-0.5-0.3-0.9-0.1-1.3,0.5l-0.2,0.3L44,147.4z M45.1,151.1c-0.5,0-0.8,0.3-1.1,0.7c-0.4,0.5-0.3,0.9,0.1,1.2c0.5,0.3,1,0.2,1.6-0.6
		l0.8-1.2C46.4,151.1,45.6,151.1,45.1,151.1z"/>
	<path class="st3" d="M54.5,151.8L54.5,151.8c0.7-0.6,1.9-0.7,2.7-0.3c1,0.5,1.6,1.5,1,2.7l-3.4,6.7l-2.3-1.2l3-5.8
		c0.3-0.5,0.2-0.9-0.2-1.1c-0.4-0.2-0.8,0-1,0.4l-3,5.8l-2.3-1.2l4.2-8.3l2.1,1.1L54.5,151.8z"/>
	<path class="st3" d="M64.3,152.1l-0.9,2.4l1.3,0.5l-0.7,1.7l-1.3-0.5l-1.8,4.6c-0.2,0.5,0.4,0.8,1.1,1.1l-0.7,1.8
		c-0.5-0.1-1.2-0.4-2-0.7c-1-0.4-1.6-1.3-1-2.7l1.9-5l-1-0.4l0.7-1.7l1,0.4l0.9-2.4L64.3,152.1z"/>
	<path class="st3" d="M66.4,162.2c-0.3,1-0.1,1.4,0.4,1.6c0.5,0.1,0.9,0.1,1.1-0.6c0.2-0.6-0.1-0.9-0.7-1.4l-1.2-1.1
		c-0.9-0.8-1.1-1.9-0.8-3c0.5-1.9,2.4-2.1,3.9-1.7c1.6,0.4,2.6,2,2.2,3.6l-0.1,0.2l-2.2-0.6l0.1-0.3c0.1-0.5-0.1-0.9-0.5-1
		c-0.5-0.1-0.8,0-0.9,0.4c-0.2,0.6,0.1,0.9,0.7,1.4l1.2,1c0.7,0.6,1.2,1.6,0.8,2.9c-0.5,1.8-1.8,2.5-4,1.8c-1.9-0.5-3-1.8-2.3-3.9
		L66.4,162.2z"/>
	<path class="st3" d="M86.4,156.3l-0.1,2.6l1.4,0.1l-0.1,1.8l-1.4-0.1l-0.2,5c0,0.5,0.6,0.6,1.4,0.6l-0.1,1.9c-0.5,0-1.3,0.1-2.1,0
		c-1.1,0-1.9-0.7-1.8-2.3l0.2-5.4l-1.1,0l0.1-1.8l1.1,0l0.1-2.6L86.4,156.3z"/>
	<path class="st3" d="M95.9,161.9l0.2,2.7c0.2,2.7-1.2,3.7-3.2,3.8c-2,0.1-3.5-0.7-3.6-3.4l-0.2-2.7c-0.2-2.7,1.2-3.6,3.2-3.7
		C94.2,158.4,95.7,159.2,95.9,161.9z M91.7,161.6l0.2,3.8c0,0.7,0.4,1,0.9,0.9c0.5,0,0.7-0.4,0.7-1l-0.2-3.8c0-0.7-0.3-0.9-0.8-0.9
		C91.9,160.6,91.6,161,91.7,161.6z"/>
	<path class="st3" d="M108.3,152.7l1.2,3.7c0.2-0.9,0.8-1.4,1.6-1.7c1.2-0.4,2.3,0.2,2.9,1.8l1.3,3.9c0.6,2,0.1,3.3-1.1,3.7
		c-0.7,0.2-1.7,0.2-2.4-0.4l0.2,0.8l-2.4,0.8l-3.8-11.8L108.3,152.7z M110.2,158.5l1,3.2c0.2,0.7,0.6,1,1.1,0.8
		c0.5-0.2,0.6-0.6,0.4-1.3l-1-3.2c-0.2-0.7-0.6-1-1.1-0.8C110.1,157.4,109.9,157.8,110.2,158.5z"/>
	<path class="st3" d="M119.1,157.3l0.6,1.3c0.3,0.7,0.7,1,1.3,0.7c0.6-0.3,0.6-0.8,0.3-1.5l-0.2-0.5l2.3-1l0.3,0.6
		c0.9,2-0.3,3.5-1.8,4.1c-1.4,0.7-3.4,0.6-4.3-1.4l-1.6-3.4c-0.9-2,0.3-3.4,1.8-4.1c1.4-0.7,3.4-0.7,4.3,1.4l0.9,2L119.1,157.3z
		 M119.9,155l-0.1-0.3c-0.4-0.9-0.7-1.1-1.3-0.9c-0.5,0.3-0.6,0.7-0.2,1.6l0.1,0.3L119.9,155z"/>
	<path class="st3" d="M132.2,147.4c-1.2-1.5-1.3-3.2,0.5-4.7c1.8-1.5,3.2-1.4,4.3-0.1l3.4,4.1c0.5,0.7,0.8,0.9,1.2,1.1l-1.9,1.6
		l-0.9-0.8c0.2,0.8,0.2,1.7-0.8,2.5c-1.1,0.9-2.2,0.9-3.4-0.5c-0.9-1.1-0.9-2-0.4-3.2l0.8-1.8c0.3-0.6,0.3-0.9-0.1-1.3
		c-0.2-0.3-0.6-0.4-1.1-0.1c-0.5,0.4-0.4,0.9,0.1,1.4l0.2,0.3L132.2,147.4z M136.1,147.4c-0.2,0.4,0,0.8,0.4,1.2
		c0.4,0.5,0.7,0.6,1.1,0.2c0.5-0.4,0.4-0.9-0.2-1.7l-0.9-1.1C136.5,146.2,136.2,146.9,136.1,147.4z"/>
	<path class="st3" d="M143.2,127.4l1.5-2.1l10,7.3l-1.4,1.9l-0.9-0.6c0.4,0.9,0.3,1.9-0.3,2.7c-0.7,0.9-2,1.1-3.8-0.1l-3.4-2.5
		c-1.4-1-1.4-2.3-0.8-3.2c0.6-0.8,1.3-1.1,2.1-1L143.2,127.4z M147.3,132.2l2.7,2c0.6,0.4,1,0.4,1.3,0c0.3-0.4,0.2-0.8-0.4-1.3
		l-2.7-2c-0.6-0.4-1.1-0.5-1.4,0C146.5,131.4,146.7,131.8,147.3,132.2z"/>
	<path class="st3" d="M153.8,125.9l1.2,0.7c0.7,0.4,1.2,0.4,1.5-0.1c0.3-0.6,0-1-0.6-1.3l-0.5-0.3l1.2-2.2l0.6,0.3
		c1.9,1.1,1.8,3,1,4.4c-0.8,1.4-2.4,2.5-4.3,1.4l-3.3-1.9c-1.9-1.1-1.8-3-1-4.4c0.8-1.4,2.3-2.5,4.3-1.4l1.9,1.1L153.8,125.9z
		 M153.1,123.6l-0.3-0.2c-0.8-0.5-1.3-0.5-1.6,0.1c-0.3,0.5-0.1,0.9,0.8,1.4l0.3,0.2L153.1,123.6z"/>
	<path class="st3" d="M153.1,116.2l4.4,1.3c0.7,0.2,2.3,0.8,2.8,1l0,0c-1.1-0.5-2.2-1.1-2.7-1.4l-3.9-2.5l1-2.4l7.8,5.5l-1.2,2.9
		l-9.3-1.8L153.1,116.2z"/>
	<path class="st3" d="M160.6,110.3l1.4,0.4c0.7,0.2,1.2,0.1,1.4-0.5c0.2-0.6-0.2-0.9-0.9-1.2l-0.5-0.2l0.7-2.4l0.6,0.2
		c2.1,0.6,2.4,2.5,2,4.1c-0.4,1.5-1.7,3-3.9,2.3l-3.6-1.1c-2.1-0.6-2.4-2.5-1.9-4c0.4-1.5,1.7-3,3.8-2.3l2.1,0.6L160.6,110.3z
		 M159.4,108.2l-0.3-0.1c-0.9-0.3-1.3-0.2-1.5,0.4c-0.2,0.6,0.2,0.9,1.1,1.2l0.3,0.1L159.4,108.2z"/>
	<path class="st3" d="M166.9,102.3l-0.5,2.6l-12.2-2.4l0.5-2.6L166.9,102.3z"/>
	<path class="st3" d="M162.1,92.4l2.7,0.3c2.7,0.3,3.4,1.8,3.2,3.7c-0.2,2-1.2,3.3-3.9,3l-2.7-0.3c-2.6-0.3-3.4-1.8-3.2-3.8
		C158.5,93.4,159.5,92.1,162.1,92.4z M161.2,96.5l3.8,0.4c0.7,0.1,1-0.2,1.1-0.7c0-0.5-0.2-0.8-0.9-0.9l-3.8-0.4
		c-0.7-0.1-1,0.2-1,0.7C160.2,96.1,160.6,96.4,161.2,96.5z"/>
	<path class="st3" d="M171.3,87.4l0,2.6l-12.5,0.2l0-2.4l1.1,0c-0.9-0.5-1.4-1.4-1.4-2.1c0-1.3,1-2.3,2.9-2.3l4.2-0.1
		c1.6,0,2.7,1,2.7,2.3c0,0.7-0.3,1.3-1.1,1.9L171.3,87.4z M161.9,87.6l3.4-0.1c0.7,0,1.1-0.3,1.1-0.8c0-0.5-0.4-0.8-1.1-0.8
		l-3.4,0.1c-0.7,0-1.1,0.3-1.1,0.8S161.2,87.6,161.9,87.6z"/>
	<path class="st3" d="M163.3,78.7l1.4-0.2c0.8-0.1,1.2-0.4,1.1-1c-0.1-0.6-0.6-0.8-1.3-0.7l-0.5,0.1l-0.3-2.5l0.7-0.1
		c2.2-0.3,3.2,1.3,3.4,2.9c0.2,1.6-0.4,3.4-2.6,3.7l-3.7,0.5c-2.2,0.3-3.2-1.3-3.4-2.9c-0.2-1.6,0.3-3.4,2.5-3.7l2.2-0.3L163.3,78.7
		z M161.4,77.2l-0.3,0c-1,0.1-1.3,0.4-1.2,1c0.1,0.6,0.5,0.8,1.5,0.7l0.3,0L161.4,77.2z"/>
	<path class="st3" d="M158.1,70.8c-1.4-0.3-1.9-0.9-2-1.6l2.8-0.7c0.3,1.4,1,1.7,2.2,1.4l4.7-1.1l0.6,2.6l-9,2.2l-0.6-2.4
		L158.1,70.8z"/>
	<path class="st3" d="M156.7,68.2c-1.6,0.6-3.9,0.6-4.9-2.2c-0.8-2.2,0.2-4,1.6-4.5c1.2-0.4,2.1-0.3,2.8,0.1
		c1.5,0.7,2.1,0.7,3.1,0.3l0.2-0.1l0.9,2.6l-1,0.3c-1.6,0.6-2.2,0.1-3-0.2c-0.4-0.1-1.1-0.9-2-0.5c-0.6,0.2-0.9,0.6-0.6,1.3
		c0.2,0.6,0.8,0.8,1.9,0.4L156.7,68.2z M161.5,64.1l-0.9-2.6l2.7-1l0.9,2.6L161.5,64.1z"/>
</g>
<g>
	<defs>
		<circle id="SVGID_00000072986109349110348800000016193176970810848427_" cx="88.1" cy="88.1" r="59.8"/>
	</defs>
	<clipPath id="SVGID_00000155106605869951563310000014678085017175789483_">
		<use xlink:href="#SVGID_00000072986109349110348800000016193176970810848427_"  style="overflow:visible;"/>
	</clipPath>
	<g style="clip-path:url(#SVGID_00000155106605869951563310000014678085017175789483_);">
		<g>
			<path class="st0" d="M88.3,117.1c-0.2-0.6-0.4-1.2-0.6-1.8l2.5-2.4c-0.8-1.9-1.8-3.6-3-5.2l-3.4,1c-0.8-1-1.7-1.9-2.7-2.7l1-3.4
				c-1.6-1.2-3.3-2.2-5.1-3l-2.4,2.5c-1.2-0.4-2.4-0.8-3.7-1l-0.8-3.4c-1.9-0.2-3.9-0.2-5.9,0l-0.9,3.4c-0.6,0.1-1.2,0.2-1.8,0.4
				c-0.6,0.2-1.2,0.4-1.8,0.6l-2.4-2.5c-1.9,0.8-3.6,1.8-5.2,3l1,3.4c-1,0.8-1.9,1.7-2.7,2.7l-3.4-1c-1.2,1.6-2.2,3.3-3,5.1l2.5,2.4
				c-0.4,1.2-0.8,2.4-1,3.7l-3.4,0.8c-0.2,1.9-0.2,3.9,0,5.9l3.4,0.9c0.1,0.6,0.2,1.2,0.4,1.8c0.2,0.6,0.4,1.2,0.6,1.8l-2.5,2.4
				c0.8,1.9,1.8,3.6,3,5.2l3.4-1c0.8,1,1.7,1.9,2.7,2.7l-1,3.4c1.6,1.2,3.3,2.2,5.1,3l2.4-2.5c1.2,0.4,2.4,0.8,3.7,1l0.8,3.4
				c1.9,0.2,3.9,0.2,5.9,0l0.9-3.4c0.6-0.1,1.2-0.2,1.8-0.4c0.6-0.2,1.2-0.4,1.8-0.6l2.4,2.5c1.9-0.8,3.6-1.8,5.2-3l-1-3.4
				c1-0.8,1.9-1.7,2.7-2.7l3.4,1c1.2-1.6,2.2-3.3,3-5.1l-2.5-2.4c0.4-1.2,0.8-2.4,1-3.7l3.4-0.8c0.2-1.9,0.2-3.9,0-5.9l-3.4-0.9
				C88.6,118.3,88.5,117.7,88.3,117.1z M71.7,139.8c-9.4,2.5-19.1-3.1-21.6-12.5c-2.5-9.4,3.1-19.1,12.5-21.6
				c9.4-2.5,19.1,3.1,21.6,12.5C86.7,127.6,81.1,137.3,71.7,139.8z"/>
			<path class="st0" d="M78.3,119.7c1.6,6.2-2,12.5-8.2,14.1c-6.2,1.6-12.5-2-14.1-8.2c-1.6-6.2,2-12.5,8.2-14.1
				C70.3,109.9,76.6,113.6,78.3,119.7z"/>
		</g>
		<g>
			<path class="st5" d="M88,54.8c-0.1,0-0.1,0-0.2-0.1c0-0.1,0-0.2,0.1-0.2l11.4-3.7c0,0,0.6-0.3,1.4,0.1c0.8,0.3,1.5,1.2,1.9,2.5
				c0,0.1,0,0.2-0.1,0.2c-0.1,0-0.2,0-0.2-0.1c-0.4-1.2-1-2-1.7-2.3c-0.6-0.3-1.1-0.1-1.1-0.1L88,54.8C88,54.8,88,54.8,88,54.8z"/>
			<path class="st6" d="M77.2,106.1c-0.1,0-7.2,14.2-7.2,14.2l15.6,3.2l4.6-12L77.2,106.1z"/>
			<path class="st7" d="M103.3,130.4c1.6,0,3.2-0.1,4.8-0.1c6.3-0.3,12.7-1.3,18.7-3.3c1-0.3,1.9-0.7,2.9-1c0.6-1.2,1.1-2.1,1.1-2.3
				c0.2-0.8,0.3-1.7,0.4-2.5c-0.8-1.6,4.6-31.2,3.6-35.2c-0.8-3.1,0.6-9.9-0.2-13c-1-1.7-8.1-2.6-11.9-3.7c-2.1-0.6-3.3-15.1-4.6-15
				c-1.8,0.1-5.8,3.7-7.5,4.3c-0.7,0.2-2.3,3.6-3,4c-0.1,0.7,0.5,7.4,0.1,8c-0.5,0.6-1,1.2-1.6,1.6c-0.7,0.6-10,3.8-10.7,4.6
				c-0.2,0.3-0.8,20.1,0,26c1.5,11.2,2.1,16.9,5.4,24.9C100.9,127.7,103.1,130.4,103.3,130.4z"/>
			<path class="st6" d="M102.4,79.4c0.8,1.7,2.1,3,3.7,3.8c3.1,1.6,6.9,1.8,10.4,1.3c3.4-0.4,6.8-1.9,9.4-4.2
				c2.6-2.2,4.5-5.1,5.7-8.3c0.1-0.2,0.1-0.4,0.2-0.6c-2.7-0.8-6.6-1.5-9.1-2.2c-2.1-0.6-3.3-15.1-4.6-15c-1.8,0.1-5.8,3.7-7.5,4.3
				c-0.7,0.2-2.3,3.6-3,4c-0.1,0.7,0.5,7.4,0.1,8c-0.5,0.6-1,1.2-1.6,1.6c-0.3,0.3-2.4,1.1-4.7,2C101.4,76,101.6,77.8,102.4,79.4z"
				/>
			<path class="st8" d="M122,147.8c0.8-2.5,1.2-4.7,0.8-5.9c-1.3-4-21.1-5.6-21.1-5.6s-3.5,0-5.3,7.5c-0.1,0.5-0.2,1.9-0.2,4H122z"
				/>
			<path class="st9" d="M106.8,147.8h28.7c-0.5-6.6-1.4-14.5-4.8-17.6c-2,1.2-29.8,0.5-32,2.4c0.1,2.8,2.3,7.2,5.6,11.4
				C105,144.9,105.9,146.3,106.8,147.8z"/>
			<path class="st10" d="M127.1,145.5c0.1,0.8,0.3,1.5,0.4,2.3h7.1c-0.5-6.6-1.4-14.8-4.8-17.9c-0.4,0.3-2.1,0.4-4.4,0.5
				c0.2,1.9,0.3,3.7,0.5,5.6C126.2,139.2,126.6,142.4,127.1,145.5z"/>
			<g>
				<path class="st7" d="M117.1,30.4c-2.7-3.2-6.5-5.5-10.6-6.2c-3.9-0.6-8,2.2-11.2,4.5c-3,2.2-4.9,3.7-5.5,7.4
					c-0.1,0.4-0.1,0.9-0.2,1.3c-0.1,0.5-0.2,0.9-0.2,1.4c-0.2,2.4,0.7,4.7,1.6,6.8c0.5,1.2,0.9,2.4,1.2,3.6c0.2,1.3,0.3,2.6,0.3,3.9
					c0.1,2.4,0.2,4.6,1.5,6.7c2,3.2,5.3,5.8,9.1,6.5c3.8,0.6,7.7-0.8,10.8-2.9c3.4-2.2,6.2-5.3,7.8-9c1.7-3.9,1.6-8.2,0.7-12.3
					C121.4,37.9,119.9,33.7,117.1,30.4z"/>
				<g>
					<path class="st11" d="M95.8,51.4c-0.3-0.5-0.6-1.1-1.1-0.8c-0.1,0-0.1,0.1-0.2,0.2c-0.2,0.3-0.3,0.7-0.3,1
						c0,0.5,0.1,1.1,0.4,1.6c0.1,0.2,0.3,0.4,0.5,0.5c0.3,0.1,0.5,0.1,0.7-0.1c0.4-0.4,0.3-1,0.2-1.5C96.1,52.2,96,51.8,95.8,51.4z"
						/>
					<path class="st3" d="M94.9,51.3c0-0.1-0.1-0.2-0.2-0.2c0,0-0.1,0-0.1,0c0,0,0,0,0,0.1c0,0,0,0,0,0c0,0,0,0,0,0c0,0,0,0,0,0
						c0,0.1,0,0.1,0,0.2c0,0.1,0,0.3,0.1,0.4c0,0.1,0.1,0.1,0.1,0.1c0.1,0,0.1,0,0.2,0c0.1-0.1,0.1-0.3,0.1-0.4
						C94.9,51.5,94.9,51.4,94.9,51.3z"/>
				</g>
				<g>
					<path class="st11" d="M107.8,48.5c-0.3-0.5-0.6-1.1-1.1-0.8c-0.1,0-0.1,0.1-0.2,0.2c-0.2,0.3-0.3,0.7-0.3,1
						c0,0.5,0.1,1.1,0.4,1.6c0.1,0.2,0.3,0.4,0.5,0.5c0.3,0.1,0.5,0.1,0.7-0.1c0.4-0.4,0.3-1,0.2-1.5
						C108,49.3,107.9,48.9,107.8,48.5z"/>
					<path class="st3" d="M106.8,48.4c0-0.1-0.1-0.2-0.2-0.2c0,0-0.1,0-0.1,0c0,0,0,0,0,0.1c0,0,0,0,0,0c0,0,0,0,0,0c0,0,0,0,0,0
						c0,0.1,0,0.1,0,0.2c0,0.1,0,0.3,0.1,0.4c0,0.1,0.1,0.1,0.1,0.1c0.1,0,0.1,0,0.2,0c0.1-0.1,0.1-0.3,0.1-0.4
						C106.8,48.6,106.8,48.5,106.8,48.4z"/>
				</g>
				<path class="st12" d="M91.7,45.4c0.5-0.1,1.1,0,1.6,0.2c0.6,0.2,1.3,0.4,1.8,0.7c0.5,0.2,1,0.5,1.5,0.8c0.1-0.1,0.1-0.2,0.1-0.3
					c-0.3-0.3-0.5-0.6-0.8-0.9c-0.3-0.3-0.6-0.6-1-0.8c-0.6-0.4-1.3-0.8-2.1-1c-0.6-0.2-1.4-0.3-1.8,0.2c-0.3,0.4-0.3,0.9-0.2,1.4
					c0,0,0,0.1,0,0.1c0,0,0,0,0,0.1C91,45.7,91.3,45.5,91.7,45.4z"/>
				<path class="st12" d="M104.4,43.8c0.9-0.4,1.8-0.7,2.7-0.9c1.5-0.5,3-0.9,4.5-1.3c-0.3-0.3-0.8-0.5-1.3-0.7
					c-1.4-0.5-2.8-0.1-4,0.6c-0.7,0.4-1.4,0.9-2.1,1.4c-0.4,0.3-0.7,0.6-1,0.9c-0.1,0.1-0.2,0.2-0.3,0.4c0,0-0.1,0.1-0.1,0.1
					c0,0,0,0,0,0C103.3,44.3,103.9,44,104.4,43.8z"/>
				<path class="st7" d="M100.8,57.5c-0.7-0.3-1.5-0.4-2-0.9c-0.1-0.1-0.3-0.2-0.3-0.3c-0.1-0.2,0-0.4,0.1-0.6
					c0.1-0.4,0.3-0.7,0.3-1.1c0.1-0.7,0.3-1.4,0.4-2c0-0.2-0.1-0.3-0.1-0.5c-0.1,0.9-0.3,1.9-0.6,2.8c-0.2,0.6-0.6,1.4-0.3,2
					c0.3,0.6,1,0.8,1.6,0.9c0.2,0,0.4,0.1,0.5,0.1c0.3,0,0.5,0.1,0.8,0.1C101.1,57.8,101,57.6,100.8,57.5z"/>
				<path class="st3" d="M101.1,62.8c0,0,4.7-1.5,8.1-4c0,0,0.5,1.9-2.7,3.4C103.4,63.7,101.1,62.8,101.1,62.8z"/>
				<path class="st13" d="M123.8,28.6c-1.4-1.8-3.2-3.1-5.3-4c-2.1-0.9-4.3-1.3-6.5-1.2c-0.4-0.5-0.9-0.8-1.4-1.1
					c-2-0.8-4.3-0.4-6.3,0.3c-2.3,0.8-4.5,2-6.6,3.1c-2.6,1.4-5.2,2.9-7.9,4.1c-1.5,0.6-3.3,0.6-4.6,1.6c-2.1,1.6-2.8,4.6-1.7,7
					c2.4,5.2,9.7,3.6,13.7,1.7c1.9-0.9,3.7-1.8,5.6-2.8c1.3-0.7,2.6-1.5,3.6-2.6c2.8,1.4,5.3,3.2,7.6,5.4c2.3,2.2,4.4,4.6,5.9,7.4
					c0.5,0.8,0.8,1.7,1.1,2.6c0.3,0.9,0.5,1.8,0.8,2.6c0.1,0.2,0.3,0.1,0.5,0c0.4-0.4,0.5-0.9,0.6-1.5c0.1-0.7,0.3-1.3,0.5-2
					c0.4-1.5,1-2.8,1.5-4.2c0.5-1.4,1.1-2.7,1.4-4.1c0.3-1.5,0.4-3.1,0.4-4.6C126.3,33.5,125.5,30.7,123.8,28.6z"/>
				<path class="st7" d="M124.7,44.6c-0.4-0.9-1.3-1.8-2.3-1.6c-1.3,0.2-1.9,1.8-2.1,2.9c-0.1,0.3-0.1,0.7-0.2,1
					c-0.1,0.5-0.3,0.9-0.3,1.4c-0.1,1.1,0,2.2,0.2,3.3c0.1,0.8,0.2,2.1,1.2,2.3c0.9,0.2,1.7-0.5,2.2-1.1c1.3-1.5,1.7-3.3,1.8-5.2
					C125.2,46.7,125.1,45.6,124.7,44.6z"/>
				<path class="st7" d="M124.1,45.6c-0.3-0.4-0.8-0.4-1.2-0.1c-0.5,0.4-0.8,1-1,1.6c-0.2,0.6-0.3,1.3-0.4,2c-0.1,1,0,2.1,0.3,3
					c0.1,0.2,0.3,0,0.3-0.2c-0.1-0.6-0.2-1.2-0.3-1.8c0.1,0,0.1,0,0.2-0.1c0.1-0.1,0.2-0.1,0.3-0.2c0.2-0.2,0.4-0.4,0.5-0.6
					c0.3-0.4,0.5-0.8,0.7-1.3c0.1-0.1-0.1-0.2-0.1-0.1c-0.2,0.4-0.5,0.8-0.7,1.1c-0.1,0.2-0.3,0.3-0.5,0.5c-0.1,0.1-0.2,0.1-0.3,0.2
					c-0.1,0-0.1,0.1-0.2,0.1c0-0.3,0-0.6,0-0.8c0.1-0.7,0.2-1.5,0.4-2.2c0.2-0.5,0.6-1.5,1.3-1.2c0.5,0.2,0.7,0.9,0.7,1.3
					c0,0.1,0.1,0,0.1,0C124.5,46.5,124.4,46,124.1,45.6z"/>
			</g>
			<path class="st14" d="M98.2,147.8h41.2l0.5-72.3c0,0-2.8-3.4-6.5-4.7c-3.7-1.3-10-2-10-2s-3.8,9.7-12.3,8.9
				c-8.5-0.8-5.8-5.6-5.8-5.6l-10.4,3.9c0,0-1.5,5.1-2.3,15.2c-0.8,10.1,2.9,54.8,2.9,54.8S96.1,146.8,98.2,147.8z"/>
			<path class="st15" d="M94.8,75.9c0,0-2,0.7-5.2,4.1c-3.2,3.3-14.2,27.1-14.2,27.1s5.4,10.1,17.7,7.2l-0.5-8.8
				C92.6,105.5,92.6,82.8,94.8,75.9z"/>
			<polygon class="st6" points="144.2,107.1 143.1,115.7 131.7,114.7 132.4,104.9 			"/>
			<g>
				<path class="st6" d="M111.6,113.8c-1.3-2.1-3.2-2.5-5.4-3c-0.9-0.2-1.7-0.4-2.6-0.6c-0.7-0.2-1.5-0.4-2.3-0.4
					c-0.3,0-0.6,0-0.9,0.1c-0.7,0.1-1.4,0.2-2,0.3c-0.9,0.1-1.8,0.3-2.7,0.5c-0.7,0.2-1.5,0.4-2.1,0.7c-0.7,0.3-1.2,0.7-1.8,1.3
					c-0.4,0.4-0.9,0.8-1.3,1.2c-0.1,0.2-0.3,0.4-0.2,0.6c0,0.2,0.2,0.3,0.4,0.4c0.2,0.1,0.5,0.1,0.7,0.1c1.2-0.2,2.2-1,3.2-1.5
					c0.3-0.2,0.7-0.3,1.1-0.4c0.5-0.2,1.1-0.3,1.6-0.4c0.4-0.1,0.8-0.1,1.1-0.1c-0.1,0-0.2,0.1-0.3,0.1c-0.5,0.2-1,0.6-1.5,0.9
					c-0.5,0.3-1,0.6-1.4,1c0,0,0,0,0,0c-0.3,0.2-0.6,0.4-0.9,0.7c-0.5,0.5-0.9,1.1-1.3,1.7c-0.1,0.2-0.3,0.5-0.5,0.7
					c-0.3,0.3-0.6,0.6-0.8,0.9c-0.3,0.3-0.5,0.7-0.6,1.2c-0.1,0.5,0.4,0.7,0.8,0.6c0.7,0,1.2-0.5,1.6-1.1c0.5-0.7,1.1-1.3,1.7-1.9
					c0.6-0.6,1.4-1,2.2-1.3c0,0,0.1,0,0.1,0c0,0-0.1,0.1-0.1,0.1c-0.3,0.2-0.6,0.6-0.8,0.9c-0.5,0.9-1.2,1.7-1.8,2.6
					c-0.3,0.4-0.6,0.9-0.9,1.3c-0.2,0.3-1.4,1.9-0.5,1.9c0.3,0,0.6-0.1,0.8-0.2c0.3-0.1,0.6-0.4,0.9-0.6c0.6-0.6,1-1.2,1.5-1.9
					c0.2-0.4,0.5-0.7,0.7-1.1c0.4-0.4,0.8-0.7,1.3-0.9c0.8-0.3,1.6-0.5,2.5-0.7c-0.3,0.1-0.6,0.3-0.8,0.4c-1.2,0.6-1.9,1.5-2.6,2.6
					c-0.4,0.5-0.9,0.9-1.2,1.4c-0.2,0.3-0.4,0.8-0.1,1.1c0.2,0.2,0.6,0.1,0.9,0c0.9-0.4,1.4-1.2,2.1-1.9c0.8-0.8,1.7-1.3,2.7-1.8
					c0.8-0.4,1,0.2,1.6,0.5c1.4,0.8,3.1,0.5,4.6-0.1c1.3-0.5,3.1-1,3.9-2.2C112.8,116.4,112.2,114.8,111.6,113.8z"/>
				<g>
					<g>
						<path class="st6" d="M116.6,118.7c1.5,0,3.1,0.1,4.6,0.1c2.2,0.1,4.4,0.3,6.6,0.4c2.2,0.1,4.5,0.1,6.7,0.1
							c1.1,0,2.2-0.1,3.2-0.2c1.1-0.1,2.2-0.3,3.1-0.8c1.5-0.8,2.5-2.5,2.4-4.2c0-0.8-0.3-1.5-0.8-2.1c-0.5-0.7-1.3-1.1-2-1.5
							c-1.5-0.7-3.2-1.1-4.9-1.3c-1.7-0.2-3.5-0.2-5.2-0.1c-7,1.5-20.2,3.5-20.2,3.5l0.2,5C110.4,117.7,112.9,118.2,116.6,118.7z"/>
					</g>
				</g>
			</g>
			<g>
				<path class="st15" d="M148.4,103.1c-0.6-3.1-1.3-6.3-2-9.4c-0.8-3.1-1.6-6.1-2.5-9.1c-0.9-2.8-1.9-5.7-3.3-8.3
					c-1-1.9-2.8-4.1-5.2-3.3c-1.9,0.6-7,4.1-7,11.8c0,2.9,1.9,21.9,1.6,24.3c2.9,0.5,12,1.9,19.5,0.6
					C149.1,107.5,148.7,105.3,148.4,103.1z"/>
			</g>
			<g>
				<g>
					<g>
						<rect x="80.2" y="122.7" class="st16" width="39.6" height="2.3"/>
						<rect x="91.2" y="123.8" class="st17" width="12.4" height="0.6"/>
						<polygon class="st16" points="88.8,125 62,125 49.4,77.1 76.1,77.1 						"/>
						<polygon class="st18" points="87.9,125 61.1,125 48.5,77.1 75.2,77.1 						"/>
					</g>
				</g>
			</g>
			<g>
				<path class="st5" d="M93.4,58.9c-2.2,0-4.3-1.4-5.2-3.7C87,52.3,88.3,49,91,48c1.3-0.5,2.7-0.4,4.1,0.2c1.3,0.6,2.3,1.8,2.9,3.2
					c0.6,1.4,0.6,2.9,0,4.3c-0.5,1.4-1.5,2.4-2.8,2.9C94.5,58.8,93.9,58.9,93.4,58.9z M92.8,48c-0.6,0-1.1,0.1-1.6,0.3
					c-2.5,1-3.7,4-2.6,6.7c1.1,2.7,4,4.2,6.5,3.2c1.2-0.5,2.2-1.4,2.6-2.7c0.5-1.3,0.5-2.7,0-4l0,0c-0.5-1.3-1.5-2.4-2.7-3
					C94.2,48.2,93.5,48,92.8,48z"/>
				<path class="st5" d="M106.9,55.5c-0.8,0-1.6-0.2-2.3-0.5c-1.3-0.6-2.3-1.8-2.9-3.2c-0.6-1.4-0.6-2.9,0-4.3
					c0.5-1.4,1.5-2.4,2.8-2.9c2.7-1,5.8,0.5,6.9,3.4l0,0c1.1,2.9-0.1,6.2-2.8,7.2C108.1,55.4,107.5,55.5,106.9,55.5z M106.3,44.6
					c-0.5,0-1.1,0.1-1.6,0.3c-1.2,0.5-2.2,1.4-2.6,2.7c-0.5,1.3-0.5,2.7,0,4c0.5,1.3,1.5,2.4,2.7,3c1.2,0.6,2.6,0.7,3.8,0.2
					c2.5-1,3.7-4,2.6-6.7C110.3,45.9,108.4,44.6,106.3,44.6z"/>
				<path class="st5" d="M110.7,47c-0.1,0-0.1,0-0.2-0.1c0-0.1,0-0.2,0.1-0.2L122,43c0,0,0.6-0.3,1.4,0c0.8,0.3,1.5,1.2,1.9,2.5
					c0,0.1,0,0.2-0.1,0.2c-0.1,0-0.2,0-0.2-0.1c-0.5-1.2-1-2-1.7-2.3c-0.6-0.3-1.1,0-1.1,0L110.7,47C110.7,47,110.7,47,110.7,47z"/>
				<path class="st5" d="M97.9,52.2C97.9,52.2,97.9,52.2,97.9,52.2c-0.2-0.1-0.2-0.2-0.2-0.3c0,0,1-1.9,4-1c0.1,0,0.1,0.1,0.1,0.2
					c0,0.1-0.1,0.1-0.2,0.1c-2.7-0.9-3.5,0.7-3.6,0.8C98.1,52.1,98,52.2,97.9,52.2z"/>
			</g>
		</g>
		<g>
			<g>
				<ellipse class="st19" cx="49.4" cy="27.1" rx="26.4" ry="25.7"/>
				<polygon class="st19" points="71.6,53.7 65.6,43.3 57.3,49.1 				"/>
			</g>
			<path class="st3" d="M56.3,26.1c-0.9-0.6-2.1-1-3.7-1.4c-0.4-0.1-0.8-0.2-1.2-0.3c-3.5-0.7-3.5-0.7-4.1-1c-1-0.4-1.4-1.1-1.4-1.9
				c0-1.4,1.3-2.4,3.2-2.4c2,0,3.1,0.7,3.6,2.2c0.1,0.2,0.1,0.4,0.1,0.6l6.4-0.7c-0.4-1.7-0.7-2.6-1.5-3.6c-1.1-1.5-2.8-2.6-5-3.1
				v-2.9h-6.8v3c-3.9,0.9-6.2,3.5-6.2,7.1c0,2.4,1,4.4,2.9,5.8c0.9,0.6,1.6,1,3.3,1.4c0.5,0.1,1,0.2,1.6,0.4
				c3.1,0.7,3.9,0.9,4.5,1.2c0.3,0.1,0.5,0.3,0.7,0.6c0.3,0.4,0.5,0.9,0.5,1.5c0,0.6-0.2,1.1-0.5,1.6c-0.6,0.7-1.7,1.1-3.2,1.1
				c-1.5,0-2.8-0.5-3.5-1.4c0-0.1-0.1-0.1-0.1-0.2c-0.4-0.5-0.5-1.1-0.7-2L39,32.2c0.2,1.4,0.4,2.1,0.7,2.8c0.6,1.7,1.7,3,3.2,3.8
				c0.8,0.5,1.8,0.8,3,1.1v3h6.8V40c2-0.4,3.6-1.1,4.8-2.3c1.4-1.3,2.1-3.3,2.1-5.5C59.6,29.5,58.5,27.5,56.3,26.1z"/>
		</g>
		<g>
			<path class="st3" d="M39.6,83.7c0,1.3-1.1,2.4-2.4,2.4c-1.3,0-2.4-1.1-2.4-2.4c0-1.3,1.1-2.4,2.4-2.4
				C38.5,81.4,39.6,82.4,39.6,83.7z"/>
			<circle class="st20" cx="49.3" cy="67.6" r="2"/>
			<path class="st21" d="M40.2,72.7c0,0.7-0.6,1.2-1.2,1.2c-0.7,0-1.2-0.6-1.2-1.2c0-0.7,0.6-1.2,1.2-1.2
				C39.7,71.5,40.2,72,40.2,72.7z"/>
			<path class="st22" d="M137.3,68.6c0,0.7-0.6,1.2-1.2,1.2c-0.7,0-1.2-0.6-1.2-1.2c0-0.7,0.6-1.2,1.2-1.2
				C136.8,67.4,137.3,67.9,137.3,68.6z"/>
			<path class="st3" d="M80.2,46.8l0.4-2.9c0-0.2-0.1-0.3-0.3-0.2l-3,1.1c-0.2,0.1-0.2,0.3-0.1,0.4l2.6,1.9
				C80,47,80.2,46.9,80.2,46.8z"/>
			<path class="st23" d="M41.7,107.3l0.7-4.7c0-0.3-0.2-0.5-0.5-0.4l-4.9,1.7c-0.3,0.1-0.3,0.5-0.1,0.6l4.2,3
				C41.4,107.7,41.7,107.5,41.7,107.3z"/>
			<path class="st24" d="M88.5,68.4l-2.1-2.1l2.1-2.1c0.5-0.5,0.5-1.2,0-1.7c-0.5-0.5-1.2-0.5-1.7,0l-2.1,2.1l-2.1-2.1
				c-0.5-0.5-1.2-0.5-1.7,0c-0.5,0.5-0.5,1.2,0,1.7l2.1,2.1l-2.1,2.1c-0.5,0.5-0.5,1.2,0,1.7c0.5,0.5,1.2,0.5,1.7,0l2.1-2.1l2.1,2.1
				c0.5,0.5,1.2,0.5,1.7,0C89,69.6,89,68.9,88.5,68.4z"/>
		</g>
	</g>
</g>
<g>
	<path class="st5" d="M88,54.8c-0.1,0-0.1,0-0.2-0.1c0-0.1,0-0.2,0.1-0.2l11.4-3.7c0,0,0.6-0.3,1.4,0.1c0.8,0.3,1.5,1.2,1.9,2.5
		c0,0.1,0,0.2-0.1,0.2c-0.1,0-0.2,0-0.2-0.1c-0.4-1.2-1-2-1.7-2.3c-0.6-0.3-1.1-0.1-1.1-0.1L88,54.8C88,54.8,88,54.8,88,54.8z"/>
	<path class="st6" d="M102.4,79.4c0.8,1.7,2.1,3,3.7,3.8c3.1,1.6,6.9,1.8,10.4,1.3c3.4-0.4,6.8-1.9,9.4-4.2c2.6-2.2,4.5-5.1,5.7-8.3
		c0.1-0.2,0.1-0.4,0.2-0.6c-2.7-0.8-6.6-1.5-9.1-2.2c-2.1-0.6-3.3-15.1-4.6-15c-1.8,0.1-5.8,3.7-7.5,4.3c-0.7,0.2-2.3,3.6-3,4
		c-0.1,0.7,0.5,7.4,0.1,8c-0.5,0.6-1,1.2-1.6,1.6c-0.3,0.3-2.4,1.1-4.7,2C101.4,76,101.6,77.8,102.4,79.4z"/>
	<g>
		<path class="st6" d="M117.1,30.4c-2.7-3.2-6.5-5.5-10.6-6.2c-3.9-0.6-8,2.2-11.2,4.5c-3,2.2-4.9,3.7-5.5,7.4
			c-0.1,0.4-0.1,0.9-0.2,1.3c-0.1,0.5-0.2,0.9-0.2,1.4c-0.2,2.4,0.7,4.7,1.6,6.8c0.5,1.2,0.9,2.4,1.2,3.6c0.2,1.3,0.3,2.6,0.3,3.9
			c0.1,2.4,0.2,4.6,1.5,6.7c2,3.2,5.3,5.8,9.1,6.5c3.8,0.6,7.7-0.8,10.8-2.9c3.4-2.2,6.2-5.3,7.8-9c1.7-3.9,1.6-8.2,0.7-12.3
			C121.4,37.9,119.9,33.7,117.1,30.4z"/>
		<g>
			<path class="st11" d="M95.8,51.4c-0.3-0.5-0.6-1.1-1.1-0.8c-0.1,0-0.1,0.1-0.2,0.2c-0.2,0.3-0.3,0.7-0.3,1c0,0.5,0.1,1.1,0.4,1.6
				c0.1,0.2,0.3,0.4,0.5,0.5c0.3,0.1,0.5,0.1,0.7-0.1c0.4-0.4,0.3-1,0.2-1.5C96.1,52.2,96,51.8,95.8,51.4z"/>
			<path class="st3" d="M94.9,51.3c0-0.1-0.1-0.2-0.2-0.2c0,0-0.1,0-0.1,0c0,0,0,0,0,0.1c0,0,0,0,0,0c0,0,0,0,0,0c0,0,0,0,0,0
				c0,0.1,0,0.1,0,0.2c0,0.1,0,0.3,0.1,0.4c0,0.1,0.1,0.1,0.1,0.1c0.1,0,0.1,0,0.2,0c0.1-0.1,0.1-0.3,0.1-0.4
				C94.9,51.5,94.9,51.4,94.9,51.3z"/>
		</g>
		<g>
			<path class="st11" d="M107.8,48.5c-0.3-0.5-0.6-1.1-1.1-0.8c-0.1,0-0.1,0.1-0.2,0.2c-0.2,0.3-0.3,0.7-0.3,1
				c0,0.5,0.1,1.1,0.4,1.6c0.1,0.2,0.3,0.4,0.5,0.5c0.3,0.1,0.5,0.1,0.7-0.1c0.4-0.4,0.3-1,0.2-1.5C108,49.3,107.9,48.9,107.8,48.5z
				"/>
			<path class="st3" d="M106.8,48.4c0-0.1-0.1-0.2-0.2-0.2c0,0-0.1,0-0.1,0c0,0,0,0,0,0.1c0,0,0,0,0,0c0,0,0,0,0,0c0,0,0,0,0,0
				c0,0.1,0,0.1,0,0.2c0,0.1,0,0.3,0.1,0.4c0,0.1,0.1,0.1,0.1,0.1c0.1,0,0.1,0,0.2,0c0.1-0.1,0.1-0.3,0.1-0.4
				C106.8,48.6,106.8,48.5,106.8,48.4z"/>
		</g>
		<path class="st12" d="M91.7,45.4c0.5-0.1,1.1,0,1.6,0.2c0.6,0.2,1.3,0.4,1.8,0.7c0.5,0.2,1,0.5,1.5,0.8c0.1-0.1,0.1-0.2,0.1-0.3
			c-0.3-0.3-0.5-0.6-0.8-0.9c-0.3-0.3-0.6-0.6-1-0.8c-0.6-0.4-1.3-0.8-2.1-1c-0.6-0.2-1.4-0.3-1.8,0.2c-0.3,0.4-0.3,0.9-0.2,1.4
			c0,0,0,0.1,0,0.1c0,0,0,0,0,0.1C91,45.7,91.3,45.5,91.7,45.4z"/>
		<path class="st12" d="M104.4,43.8c0.9-0.4,1.8-0.7,2.7-0.9c1.5-0.5,3-0.9,4.5-1.3c-0.3-0.3-0.8-0.5-1.3-0.7
			c-1.4-0.5-2.8-0.1-4,0.6c-0.7,0.4-1.4,0.9-2.1,1.4c-0.4,0.3-0.7,0.6-1,0.9c-0.1,0.1-0.2,0.2-0.3,0.4c0,0-0.1,0.1-0.1,0.1
			c0,0,0,0,0,0C103.3,44.3,103.9,44,104.4,43.8z"/>
		<path class="st7" d="M100.8,57.5c-0.7-0.3-1.5-0.4-2-0.9c-0.1-0.1-0.3-0.2-0.3-0.3c-0.1-0.2,0-0.4,0.1-0.6
			c0.1-0.4,0.3-0.7,0.3-1.1c0.1-0.7,0.3-1.4,0.4-2c0-0.2-0.1-0.3-0.1-0.5c-0.1,0.9-0.3,1.9-0.6,2.8c-0.2,0.6-0.6,1.4-0.3,2
			c0.3,0.6,1,0.8,1.6,0.9c0.2,0,0.4,0.1,0.5,0.1c0.3,0,0.5,0.1,0.8,0.1C101.1,57.8,101,57.6,100.8,57.5z"/>
		<path class="st3" d="M101.1,62.8c0,0,4.7-1.5,8.1-4c0,0,0.5,1.9-2.7,3.4C103.4,63.7,101.1,62.8,101.1,62.8z"/>
		<path class="st13" d="M123.8,28.6c-1.4-1.8-3.2-3.1-5.3-4c-2.1-0.9-4.3-1.3-6.5-1.2c-0.4-0.5-0.9-0.8-1.4-1.1
			c-2-0.8-4.3-0.4-6.3,0.3c-2.3,0.8-4.5,2-6.6,3.1c-2.6,1.4-5.2,2.9-7.9,4.1c-1.5,0.6-3.3,0.6-4.6,1.6c-2.1,1.6-2.8,4.6-1.7,7
			c2.4,5.2,9.7,3.6,13.7,1.7c1.9-0.9,3.7-1.8,5.6-2.8c1.3-0.7,2.6-1.5,3.6-2.6c2.8,1.4,5.3,3.2,7.6,5.4c2.3,2.2,4.4,4.6,5.9,7.4
			c0.5,0.8,0.8,1.7,1.1,2.6c0.3,0.9,0.5,1.8,0.8,2.6c0.1,0.2,0.3,0.1,0.5,0c0.4-0.4,0.5-0.9,0.6-1.5c0.1-0.7,0.3-1.3,0.5-2
			c0.4-1.5,1-2.8,1.5-4.2c0.5-1.4,1.1-2.7,1.4-4.1c0.3-1.5,0.4-3.1,0.4-4.6C126.3,33.5,125.5,30.7,123.8,28.6z"/>
		<path class="st6" d="M124.7,44.6c-0.4-0.9-1.3-1.8-2.3-1.6c-1.3,0.2-1.9,1.8-2.1,2.9c-0.1,0.3-0.1,0.7-0.2,1
			c-0.1,0.5-0.3,0.9-0.3,1.4c-0.1,1.1,0,2.2,0.2,3.3c0.1,0.8,0.2,2.1,1.2,2.3c0.9,0.2,1.7-0.5,2.2-1.1c1.3-1.5,1.7-3.3,1.8-5.2
			C125.2,46.7,125.1,45.6,124.7,44.6z"/>
		<path class="st7" d="M124.1,45.6c-0.3-0.4-0.8-0.4-1.2-0.1c-0.5,0.4-0.8,1-1,1.6c-0.2,0.6-0.3,1.3-0.4,2c-0.1,1,0,2.1,0.3,3
			c0.1,0.2,0.3,0,0.3-0.2c-0.1-0.6-0.2-1.2-0.3-1.8c0.1,0,0.1,0,0.2-0.1c0.1-0.1,0.2-0.1,0.3-0.2c0.2-0.2,0.4-0.4,0.5-0.6
			c0.3-0.4,0.5-0.8,0.7-1.3c0.1-0.1-0.1-0.2-0.1-0.1c-0.2,0.4-0.5,0.8-0.7,1.1c-0.1,0.2-0.3,0.3-0.5,0.5c-0.1,0.1-0.2,0.1-0.3,0.2
			c-0.1,0-0.1,0.1-0.2,0.1c0-0.3,0-0.6,0-0.8c0.1-0.7,0.2-1.5,0.4-2.2c0.2-0.5,0.6-1.5,1.3-1.2c0.5,0.2,0.7,0.9,0.7,1.3
			c0,0.1,0.1,0,0.1,0C124.5,46.5,124.4,46,124.1,45.6z"/>
	</g>
	<g>
		<path class="st5" d="M93.4,58.9c-2.2,0-4.3-1.4-5.2-3.7C87,52.3,88.3,49,91,48c1.3-0.5,2.7-0.4,4.1,0.2c1.3,0.6,2.3,1.8,2.9,3.2
			c0.6,1.4,0.6,2.9,0,4.3c-0.5,1.4-1.5,2.4-2.8,2.9C94.5,58.8,93.9,58.9,93.4,58.9z M92.8,48c-0.6,0-1.1,0.1-1.6,0.3
			c-2.5,1-3.7,4-2.6,6.7c1.1,2.7,4,4.2,6.5,3.2c1.2-0.5,2.2-1.4,2.6-2.7c0.5-1.3,0.5-2.7,0-4l0,0c-0.5-1.3-1.5-2.4-2.7-3
			C94.2,48.2,93.5,48,92.8,48z"/>
		<path class="st5" d="M106.9,55.5c-0.8,0-1.6-0.2-2.3-0.5c-1.3-0.6-2.3-1.8-2.9-3.2c-0.6-1.4-0.6-2.9,0-4.3
			c0.5-1.4,1.5-2.4,2.8-2.9c2.7-1,5.8,0.5,6.9,3.4l0,0c1.1,2.9-0.1,6.2-2.8,7.2C108.1,55.4,107.5,55.5,106.9,55.5z M106.3,44.6
			c-0.5,0-1.1,0.1-1.6,0.3c-1.2,0.5-2.2,1.4-2.6,2.7c-0.5,1.3-0.5,2.7,0,4c0.5,1.3,1.5,2.4,2.7,3c1.2,0.6,2.6,0.7,3.8,0.2
			c2.5-1,3.7-4,2.6-6.7C110.3,45.9,108.4,44.6,106.3,44.6z"/>
		<path class="st5" d="M110.7,47c-0.1,0-0.1,0-0.2-0.1c0-0.1,0-0.2,0.1-0.2L122,43c0,0,0.6-0.3,1.4,0c0.8,0.3,1.5,1.2,1.9,2.5
			c0,0.1,0,0.2-0.1,0.2c-0.1,0-0.2,0-0.2-0.1c-0.5-1.2-1-2-1.7-2.3c-0.6-0.3-1.1,0-1.1,0L110.7,47C110.7,47,110.7,47,110.7,47z"/>
		<path class="st5" d="M97.9,52.2C97.9,52.2,97.9,52.2,97.9,52.2c-0.2-0.1-0.2-0.2-0.2-0.3c0,0,1-1.9,4-1c0.1,0,0.1,0.1,0.1,0.2
			c0,0.1-0.1,0.1-0.2,0.1c-2.7-0.9-3.5,0.7-3.6,0.8C98.1,52.1,98,52.2,97.9,52.2z"/>
	</g>
	<g>
		<g>
			<ellipse class="st19" cx="49.4" cy="27.1" rx="26.4" ry="25.7"/>
			<polygon class="st19" points="71.6,53.7 65.6,43.3 57.3,49.1 			"/>
		</g>
		<path class="st3" d="M56.3,26.1c-0.9-0.6-2.1-1-3.7-1.4c-0.4-0.1-0.8-0.2-1.2-0.3c-3.5-0.7-3.5-0.7-4.1-1c-1-0.4-1.4-1.1-1.4-1.9
			c0-1.4,1.3-2.4,3.2-2.4c2,0,3.1,0.7,3.6,2.2c0.1,0.2,0.1,0.4,0.1,0.6l6.4-0.7c-0.4-1.7-0.7-2.6-1.5-3.6c-1.1-1.5-2.8-2.6-5-3.1
			v-2.9h-6.8v3c-3.9,0.9-6.2,3.5-6.2,7.1c0,2.4,1,4.4,2.9,5.8c0.9,0.6,1.6,1,3.3,1.4c0.5,0.1,1,0.2,1.6,0.4c3.1,0.7,3.9,0.9,4.5,1.2
			c0.3,0.1,0.5,0.3,0.7,0.6c0.3,0.4,0.5,0.9,0.5,1.5c0,0.6-0.2,1.1-0.5,1.6c-0.6,0.7-1.7,1.1-3.2,1.1c-1.5,0-2.8-0.5-3.5-1.4
			c0-0.1-0.1-0.1-0.1-0.2c-0.4-0.5-0.5-1.1-0.7-2L39,32.2c0.2,1.4,0.4,2.1,0.7,2.8c0.6,1.7,1.7,3,3.2,3.8c0.8,0.5,1.8,0.8,3,1.1v3
			h6.8V40c2-0.4,3.6-1.1,4.8-2.3c1.4-1.3,2.1-3.3,2.1-5.5C59.6,29.5,58.5,27.5,56.3,26.1z"/>
	</g>
	<g>
		<path class="st3" d="M39.6,83.7c0,1.3-1.1,2.4-2.4,2.4c-1.3,0-2.4-1.1-2.4-2.4c0-1.3,1.1-2.4,2.4-2.4
			C38.5,81.4,39.6,82.4,39.6,83.7z"/>
		<circle class="st18" cx="57.3" cy="63.7" r="2"/>
		<path class="st21" d="M40.2,72.7c0,0.7-0.6,1.2-1.2,1.2c-0.7,0-1.2-0.6-1.2-1.2c0-0.7,0.6-1.2,1.2-1.2
			C39.7,71.5,40.2,72,40.2,72.7z"/>
		<path class="st19" d="M137.3,68.6c0,0.7-0.6,1.2-1.2,1.2c-0.7,0-1.2-0.6-1.2-1.2c0-0.7,0.6-1.2,1.2-1.2
			C136.8,67.4,137.3,67.9,137.3,68.6z"/>
		<path class="st3" d="M80.2,46.8l0.4-2.9c0-0.2-0.1-0.3-0.3-0.2l-3,1.1c-0.2,0.1-0.2,0.3-0.1,0.4l2.6,1.9
			C80,47,80.2,46.9,80.2,46.8z"/>
		<path class="st19" d="M41.7,107.3l0.7-4.7c0-0.3-0.2-0.5-0.5-0.4l-4.9,1.7c-0.3,0.1-0.3,0.5-0.1,0.6l4.2,3
			C41.4,107.7,41.7,107.5,41.7,107.3z"/>
		<path class="st0" d="M88.5,68.4l-2.1-2.1l2.1-2.1c0.5-0.5,0.5-1.2,0-1.7c-0.5-0.5-1.2-0.5-1.7,0l-2.1,2.1l-2.1-2.1
			c-0.5-0.5-1.2-0.5-1.7,0c-0.5,0.5-0.5,1.2,0,1.7l2.1,2.1l-2.1,2.1c-0.5,0.5-0.5,1.2,0,1.7c0.5,0.5,1.2,0.5,1.7,0l2.1-2.1l2.1,2.1
			c0.5,0.5,1.2,0.5,1.7,0C89,69.6,89,68.9,88.5,68.4z"/>
	</g>
</g>
</svg>
