<svg width="26" height="26" viewBox="0 0 26 26" fill="none" xmlns="http://www.w3.org/2000/svg">
<path d="M13.2365 10.725V15.665H20.4677C20.0357 17.2027 19.0867 18.5526 17.7744 19.4963C16.4621 20.4399 14.8633 20.9222 13.2365 20.865C11.9442 20.8607 10.672 20.5508 9.52811 19.9616C8.38422 19.3724 7.40243 18.5213 6.66619 17.4807C5.92996 16.44 5.46104 15.2406 5.29929 13.9844C5.13755 12.7281 5.28777 11.4522 5.73717 10.265C6.18657 9.07783 6.92187 8.01451 7.88058 7.16543C8.83929 6.31634 9.99306 5.7066 11.2438 5.38802C12.4946 5.06944 13.8054 5.05145 15.0647 5.33558C16.3241 5.6197 17.4949 6.19754 18.4775 7.01997L22.1926 3.37997C20.5987 1.96055 18.6761 0.942648 16.5908 0.414193C14.5056 -0.114263 12.3204 -0.137386 10.2239 0.346821C8.12752 0.831027 6.18293 1.80801 4.55813 3.19337C2.93333 4.57873 1.67718 6.33082 0.898186 8.2983C0.11919 10.2658 -0.159233 12.3895 0.0869679 14.486C0.333168 16.5825 1.09659 18.5888 2.31129 20.3315C3.52599 22.0742 5.15545 23.501 7.05891 24.4886C8.96237 25.4762 11.0826 25.9949 13.2365 26C24.3819 26 26.8365 15.795 25.775 10.725H13.2365Z" fill="#B2BACD"/>
</svg>
