<svg width="1048" height="86" viewBox="0 0 1048 86" fill="none" xmlns="http://www.w3.org/2000/svg">
<path d="M100 43C115.5 43 131.5 2 149.5 2H898.5C916.5 2 932.5 43 948 43M100 43C115.5 43 131.5 84 149.5 84H898.5C916.5 84 932.5 43 948 43M100 43H0M948 43H1048" stroke="url(#paint0_linear_231_487)" stroke-width="4"/>
<path fill-rule="evenodd" clip-rule="evenodd" d="M934.865 38.029C936.884 39.988 939.003 41.7416 941.213 43C939.003 44.2584 936.884 46.012 934.865 47.971C931.104 51.6206 927.314 56.3727 923.561 61.0779L923.561 61.0789L923.478 61.1822C923.193 61.5392 922.909 61.8959 922.625 62.2518C918.515 67.3964 914.442 72.3909 910.311 76.1068C906.147 79.8522 902.244 82 898.5 82H149.5C145.756 82 141.853 79.8522 137.689 76.1068C133.558 72.3909 129.485 67.3964 125.375 62.2518C125.064 61.8619 124.752 61.471 124.44 61.0798C120.687 56.374 116.896 51.6211 113.135 47.971C111.116 46.012 108.997 44.2584 106.787 43C108.997 41.7416 111.116 39.988 113.135 38.029C116.896 34.3789 120.687 29.6261 124.44 24.9203L124.441 24.9183C124.753 24.5278 125.064 24.1375 125.375 23.7482C129.485 18.6036 133.558 13.6091 137.689 9.89324C141.853 6.1478 145.756 4 149.5 4H898.5C902.244 4 906.147 6.1478 910.311 9.89324C914.442 13.6091 918.515 18.6036 922.625 23.7482C922.809 23.9793 922.994 24.2108 923.179 24.4424L923.561 24.9211C927.313 29.6266 931.104 34.3792 934.865 38.029Z" fill="url(#paint1_linear_231_487)"/>
<defs>
<linearGradient id="paint0_linear_231_487" x1="1063" y1="30.4999" x2="-4.5" y2="54.4999" gradientUnits="userSpaceOnUse">
<stop stop-color="#67747A" stop-opacity="0"/>
<stop offset="0.224793" stop-color="#67747A"/>
<stop offset="0.851552" stop-color="#C8C9CE"/>
<stop offset="1" stop-color="white" stop-opacity="0"/>
</linearGradient>
<linearGradient id="paint1_linear_231_487" x1="524" y1="1.46154" x2="524" y2="85.5641" gradientUnits="userSpaceOnUse">
<stop stop-color="#2A303E"/>
<stop offset="1" stop-color="#161D2E"/>
</linearGradient>
</defs>
</svg>
