<svg width="526" height="56" viewBox="0 0 526 56" fill="none" xmlns="http://www.w3.org/2000/svg">
<path d="M7.58398 28C18.292 28 29.3454 2 41.7805 2H389.219C401.655 2 412.708 28 423.416 28M7.58398 28C18.292 28 29.3454 54 41.7805 54H389.219C401.655 54 412.708 28 423.416 28M7.58398 28H0M423.416 28H526" stroke="url(#paint0_linear_231_489)" stroke-width="4"/>
<path fill-rule="evenodd" clip-rule="evenodd" d="M414.342 24.847C415.737 26.0893 417.201 27.2013 418.728 27.9993C417.201 28.7973 415.737 29.9093 414.342 31.1516C411.744 33.466 409.126 36.4795 406.533 39.4633L406.476 39.5295C406.279 39.7559 406.083 39.9821 405.886 40.2077C403.047 43.4702 400.233 46.6374 397.379 48.9938C394.503 51.369 391.806 52.731 389.22 52.731H41.7815C39.1949 52.731 36.4988 51.369 33.622 48.9938C30.768 46.6374 27.9541 43.4702 25.1151 40.2077C24.9 39.9605 24.6846 39.7126 24.4691 39.4645C21.8763 36.4804 19.2577 33.4663 16.6592 31.1516C15.2645 29.9093 13.8001 28.7973 12.2737 27.9993C13.8001 27.2013 15.2645 26.0893 16.6592 24.847C19.2577 22.5323 21.8763 19.5183 24.469 16.5341L24.4701 16.5329C24.6853 16.2852 24.9003 16.0377 25.1151 15.7908C27.9541 12.5284 30.768 9.36118 33.622 7.00476C36.4988 4.6296 39.1949 3.26758 41.7815 3.26758H389.22C391.806 3.26758 394.503 4.6296 397.379 7.00476C400.233 9.36119 403.047 12.5284 405.886 15.7908C406.014 15.9374 406.141 16.0842 406.269 16.2311L406.533 16.5346C409.125 19.5186 411.744 22.5324 414.342 24.847Z" fill="url(#paint1_linear_231_489)"/>
<defs>
<linearGradient id="paint0_linear_231_489" x1="672.863" y1="20.0731" x2="-64.539" y2="38.1338" gradientUnits="userSpaceOnUse">
<stop offset="0.193354" stop-color="#67747A" stop-opacity="0"/>
<stop offset="0.295108" stop-color="#67747A"/>
<stop offset="0.856778" stop-color="#C8C9CE"/>
<stop offset="0.916744" stop-color="white" stop-opacity="0"/>
</linearGradient>
<linearGradient id="paint1_linear_231_489" x1="300.501" y1="1.65782" x2="300.501" y2="54.9912" gradientUnits="userSpaceOnUse">
<stop stop-color="#2A303E"/>
<stop offset="1" stop-color="#161D2E"/>
</linearGradient>
</defs>
</svg>
