<svg width="538" height="56" viewBox="0 0 538 56" fill="none" xmlns="http://www.w3.org/2000/svg">
<path d="M102.584 28C113.292 28 124.345 2 136.781 2H484.219C496.655 2 507.708 28 518.416 28M102.584 28C113.292 28 124.345 54 136.781 54H484.219C496.655 54 507.708 28 518.416 28M102.584 28H0M518.416 28H537.5" stroke="url(#paint0_linear_231_488)" stroke-width="4"/>
<path fill-rule="evenodd" clip-rule="evenodd" d="M509.342 24.847C510.737 26.0893 512.201 27.2013 513.728 27.9993C512.201 28.7973 510.737 29.9093 509.342 31.1516C506.744 33.466 504.126 36.4795 501.533 39.4633L501.476 39.5295C501.279 39.7559 501.083 39.9821 500.886 40.2077C498.047 43.4702 495.233 46.6374 492.379 48.9938C489.503 51.369 486.806 52.731 484.22 52.731H136.781C134.195 52.731 131.499 51.369 128.622 48.9938C125.768 46.6374 122.954 43.4702 120.115 40.2077C119.9 39.9605 119.685 39.7126 119.469 39.4645C116.876 36.4804 114.258 33.4663 111.659 31.1516C110.265 29.9093 108.8 28.7973 107.274 27.9993C108.8 27.2013 110.265 26.0893 111.659 24.847C114.258 22.5323 116.876 19.5183 119.469 16.5341L119.47 16.5329C119.685 16.2852 119.9 16.0377 120.115 15.7908C122.954 12.5284 125.768 9.36118 128.622 7.00476C131.499 4.6296 134.195 3.26758 136.781 3.26758H484.22C486.806 3.26758 489.503 4.6296 492.379 7.00476C495.233 9.36119 498.047 12.5284 500.886 15.7908C501.014 15.9374 501.141 16.0842 501.269 16.2311L501.533 16.5346C504.125 19.5186 506.744 22.5324 509.342 24.847Z" fill="url(#paint1_linear_231_488)"/>
<defs>
<linearGradient id="paint0_linear_231_488" x1="767.864" y1="20.0734" x2="0.0920244" y2="43.9585" gradientUnits="userSpaceOnUse">
<stop offset="0.317551" stop-color="#67747A" stop-opacity="0"/>
<stop offset="0.335492" stop-color="#67747A"/>
<stop offset="0.851552" stop-color="#C8C9CE"/>
<stop offset="1" stop-color="white" stop-opacity="0"/>
</linearGradient>
<linearGradient id="paint1_linear_231_488" x1="395.501" y1="1.65782" x2="395.501" y2="54.9912" gradientUnits="userSpaceOnUse">
<stop stop-color="#2A303E"/>
<stop offset="1" stop-color="#161D2E"/>
</linearGradient>
</defs>
</svg>
